<?xml version="1.0" encoding="utf-8"?>
<!-- Generator: Adobe Illustrator 25.2.0, SVG Export Plug-In . SVG Version: 6.00 Build 0)  -->
<svg version="1.1" id="Layer_1" xmlns="http://www.w3.org/2000/svg" xmlns:xlink="http://www.w3.org/1999/xlink" x="0px" y="0px"
	 viewBox="0 0 108.11 41.15" style="enable-background:new 0 0 108.11 41.15;" xml:space="preserve">
<style type="text/css">
	.st0{fill:#F59478;}
	.st1{fill:#002638;}
	.st2{fill:#6BADA8;}
	.st3{fill:none;stroke:#F4C874;stroke-width:1.5;stroke-miterlimit:10;}
	.st4{fill:none;stroke:#F59478;stroke-width:1.5;stroke-miterlimit:10;}
</style>
<g>
	<path class="st2" d="M52.29,40.55c-0.68-0.37-1.22-0.89-1.61-1.54c-0.39-0.66-0.58-1.4-0.58-2.22c0-0.82,0.2-1.56,0.59-2.22
		c0.39-0.66,0.93-1.17,1.61-1.54s1.45-0.56,2.3-0.56c0.69,0,1.32,0.12,1.88,0.36c0.57,0.24,1.05,0.59,1.44,1.04l-1.01,0.95
		c-0.61-0.66-1.36-0.98-2.24-0.98c-0.58,0-1.09,0.13-1.55,0.38c-0.46,0.25-0.81,0.6-1.07,1.05s-0.38,0.96-0.38,1.52
		c0,0.57,0.13,1.08,0.38,1.52s0.61,0.8,1.07,1.05c0.46,0.25,0.97,0.38,1.55,0.38c0.89,0,1.64-0.33,2.24-1l1.01,0.96
		c-0.39,0.46-0.87,0.8-1.45,1.04c-0.57,0.24-1.2,0.36-1.89,0.36C53.74,41.11,52.98,40.92,52.29,40.55z"/>
	<path class="st2" d="M59.31,32.58h1.56v8.4h-1.56V32.58z"/>
	<path class="st2" d="M70.48,32.58v8.4h-1.28l-4.63-5.69v5.69h-1.55v-8.4h1.28l4.63,5.69v-5.69H70.48z"/>
	<path class="st2" d="M78.91,39.68v1.31h-6.3v-8.4h6.13v1.31h-4.57v2.18h4.06v1.28h-4.06v2.32H78.91z"/>
	<path class="st2" d="M88.25,40.98l-0.01-5.57l-2.76,4.61h-0.7l-2.76-4.54v5.5h-1.49v-8.4h1.28l3.34,5.57l3.28-5.57h1.28l0.01,8.4
		H88.25z"/>
	<path class="st2" d="M97.32,39.04h-4.2l-0.83,1.94h-1.61l3.78-8.4H96l3.79,8.4h-1.63L97.32,39.04z M96.81,37.82l-1.58-3.67
		l-1.57,3.67H96.81z"/>
	<path class="st2" d="M101.47,40.83c-0.6-0.18-1.08-0.43-1.43-0.73l0.54-1.21c0.34,0.27,0.77,0.49,1.27,0.67s1,0.26,1.51,0.26
		c0.62,0,1.09-0.1,1.4-0.3c0.31-0.2,0.46-0.46,0.46-0.79c0-0.24-0.09-0.44-0.26-0.59c-0.17-0.16-0.39-0.28-0.65-0.37
		c-0.26-0.09-0.62-0.19-1.08-0.3c-0.64-0.15-1.16-0.3-1.55-0.46c-0.4-0.15-0.74-0.39-1.02-0.71c-0.28-0.32-0.43-0.76-0.43-1.31
		c0-0.46,0.13-0.89,0.38-1.27c0.25-0.38,0.63-0.68,1.14-0.91c0.51-0.22,1.13-0.34,1.87-0.34c0.51,0,1.02,0.06,1.51,0.19
		s0.92,0.31,1.28,0.55l-0.49,1.21c-0.37-0.22-0.75-0.38-1.15-0.49c-0.4-0.11-0.79-0.17-1.16-0.17c-0.62,0-1.07,0.1-1.37,0.31
		c-0.3,0.21-0.45,0.48-0.45,0.83c0,0.24,0.08,0.44,0.26,0.59c0.17,0.15,0.39,0.27,0.65,0.36c0.26,0.09,0.62,0.19,1.08,0.3
		c0.62,0.14,1.14,0.29,1.54,0.45c0.4,0.16,0.74,0.39,1.03,0.71s0.43,0.75,0.43,1.3c0,0.46-0.13,0.88-0.38,1.26s-0.63,0.68-1.15,0.9
		c-0.51,0.22-1.14,0.34-1.87,0.34C102.7,41.11,102.07,41.01,101.47,40.83z"/>
</g>
<g>
	<path class="st2" d="M38.59,38.71c-4,0-5.41-8.01-5.41-16.89c0-3.22,0.19-6.5,0.5-9.57c1.72-4.38,3-8.63,3-12.26h-2.91
		c-1.03,4.85-1.85,9.63-2.41,14.14c-1.38,2.91-2.94,5.91-4.28,8.85c-0.34-3.75-0.97-7.6-1.66-12.16c0.28-2.47,0.47-5.13,0.5-7.94
		h-2.85c-0.03,0.75-0.06,1.47-0.06,2.19c0,3.1,0.25,6.16,0.59,9.29C21.23,25.39,15.57,32.8,9.6,32.8c-4.78,0-6.79-3.38-6.79-7
		c0-4.1,2.56-8.51,6.44-8.51c2.25,0,3.44,1.63,3.44,3.85c0,1.31-0.44,2.88-1.34,4.38l2.63,1.44c1-1.66,1.5-3.44,1.5-5.1
		c0-3.47-2.1-6.38-6-6.38C3.44,15.48,0,20.73,0,25.74c0,4.57,2.88,8.94,9.29,8.94c6.72,0,12.1-5.91,14.79-16.32
		c0.34,3.19,0.72,6.47,0.88,9.94c-0.69,2.06-1.13,4.03-1.13,5.82l3.06,0.25c0.31-2.22,0.44-4.28,0.44-6.32c0-0.41,0-0.78,0-1.19
		c1.06-2.6,2.31-5.35,3.57-8.13c-0.16,2.16-0.25,4.22-0.25,6.13c0,9.69,2.22,16.29,8.16,16.29c2.69,0,4.66-1.53,5.82-4.41
		l-2.66-0.94C41.28,37.56,40.18,38.71,38.59,38.71z"/>
	<path class="st2" d="M77.84,11.51c1.38,0,2.19-1.31,2.19-2.44c0-0.88-0.44-1.63-1.47-1.63c-1.38,0-2.19,1.34-2.19,2.47
		C76.37,10.76,76.84,11.51,77.84,11.51z"/>
	<path class="st2" d="M107.23,20.11c-0.94,2.41-2.16,5.35-3,5.35c-0.41,0-0.63-0.69-0.63-2c0-1.16,0.16-2.78,0.47-4.94
		c0.38-1.28,0.69-2.5,0.97-3.69c0.56,0,1.16,0,1.28-0.03l0.28-1.47c-0.28,0.03-0.72,0.06-1.22,0.06c0.53-2.5,0.84-4.88,1-7.44h-2.22
		c-0.72,3.16-1.13,5.25-1.53,7.41c-0.66,0-1.19-0.03-1.41-0.03l-0.22,1.47c0.13,0.03,0.66,0.03,1.38,0.03
		c-0.42,1.88-0.71,3.72-0.88,5.38c-1.36,3.53-2.38,5.25-3.18,5.25c-0.28,0-0.63-0.16-0.63-1.06c0-2.56,2.03-6.29,2.03-9.19
		c0-1.5-0.72-2.22-1.81-2.22c-1.34,0-2.63,0.97-3.66,2.53c0.13-0.59,0.25-1.16,0.34-1.72c1.94-2.38,4.63-6.66,4.63-9.19
		c0-1.19-0.59-1.97-2.16-1.97c-0.94,0-2.03,0.59-2.63,1.94c-1.18,2.69-2.45,9.37-3.5,15.6c-0.81,2.1-2.02,3.84-3.32,5.32
		c0.91-4.97,1.94-10.79,2.31-12.16h-2.56l-0.28,1.34c-0.22-1.09-0.75-1.66-1.72-1.66c-2.2,0-4.09,3.57-4.92,7.21
		c-1.35,3.52-2.37,5.24-3.18,5.24c-0.28,0-0.63-0.16-0.63-1.06c0-2.56,0.91-6.19,2-11.07h-2.66c-0.36,1.52-1.1,4.27-1.55,6.97
		c-1.31,3.35-2.48,5.22-3.46,5.22c-0.72,0-1.19-0.66-1.19-2.75c0-1,0.09-2.22,0.25-3.56c1.25-1.53,3.35-4.6,4.63-8.69
		c0.31-0.97,0.94-3.19,0.94-5.03c0-1.59-0.47-2.91-2.1-2.91c-1.81,0-3.78,3.53-5.19,11.38c-0.4,2.3-0.7,4.37-0.86,6.16
		c0,0-0.01,0-0.01,0c-1.38,3.6-2.41,5.35-3.22,5.35c-0.28,0-0.63-0.16-0.63-1.06c0-2.56,2.03-6.29,2.03-9.19
		c0-1.5-0.72-2.22-1.81-2.22c-1.31,0-2.56,0.94-3.56,2.44l0.34-2.1h-2.69c-0.29,1.86-0.68,4.2-1.14,6.81
		c-0.56,1.45-1.31,2.23-2.12,2.6c0.41-1.38,0.78-2.97,0.78-4.5c0-2.81-1.09-5.22-3.19-5.22c-2.22,0-3.53,2.1-3.88,4.5l-1.13-0.28
		c-0.32,0.95-0.57,1.93-0.73,2.9c-0.56,1.45-1.31,2.23-2.11,2.6c0.41-1.38,0.78-2.97,0.78-4.5c0-2.81-1.09-5.22-3.19-5.22
		c-2.22,0-3.53,2.1-3.88,4.5L37,17.23c-0.63,1.84-0.97,3.81-0.97,5.57c0,2.85,0.94,5.1,3.1,5.1c2,0,3.6-1.34,4.66-3.63
		c0.92-0.33,1.8-0.95,2.52-1.81c0,0.11-0.02,0.23-0.02,0.34c0,2.85,0.94,5.1,3.1,5.1c2,0,3.6-1.34,4.66-3.63
		c0.79-0.28,1.55-0.78,2.2-1.46c-0.76,2.25-1.01,4.77-1.01,4.77h2.72l1.25-6.47c1.03-4.41,2.41-5.88,3.19-5.88
		c0.34,0,0.5,0.28,0.5,0.63c0,2.25-2.03,5.72-2.03,9.1c0,1.91,1.03,2.78,2.13,2.78c1.96,0,3.24-2.12,4.35-4.71
		c0.04,3.1,0.79,4.87,2.62,4.87c1.58,0,2.81-1.43,4.14-4.42c-0.01,0.18-0.01,0.37-0.01,0.54c0,2.16,0.56,3.72,2.25,3.72
		c1.69,0,2.75-1.59,3.66-3.69c0.02,2.22,0.65,3.85,2.15,3.85c1.28,0,2.31-0.94,3.1-2.35c-0.19,0.97-0.31,1.97-0.5,2.91
		c-2.31,2.22-4.32,4-4.32,6.16c0,1.66,1,2.47,2.41,2.47c2,0,3.19-2.31,3.72-5.47l0.69-4.03c0.95-0.98,1.9-2.12,2.76-3.46
		c-0.16,0.8-0.29,1.71-0.29,2.61c0,0.28,0,0.56,0.03,0.84h2.53c1.16-9.32,2.85-12.35,4.19-12.35c0.34,0,0.5,0.28,0.5,0.63
		c0,2.25-2.03,5.72-2.03,9.1c0,1.91,1.03,2.78,2.13,2.78c1.9,0,3.17-2,4.26-4.48c0,0.04,0,0.09,0,0.14c0,2.66,0.56,4.35,1.94,4.35
		c2.03,0,3-2.19,4.85-7.19C108.11,20.39,107.42,20.11,107.23,20.11z M97.22,4.66c0.16,0,0.28,0.16,0.28,0.44
		c0,1.59-1.44,4.38-2.31,6.07C96.32,5.97,96.72,4.66,97.22,4.66z M73.93,4.66c0.16,0,0.31,0.25,0.31,0.69
		c-0.03,3.81-2.35,9.04-3.91,11.88C71.24,11.41,73.08,4.66,73.93,4.66z M39.78,25.49c-0.09,0.03-0.16,0.03-0.25,0.03
		c-0.78,0-1.28-1.28-1.28-3.13c0-0.41,0.03-0.88,0.09-1.34c0.44,1.5,1.28,2.75,2.6,3.25C40.56,24.92,40.18,25.36,39.78,25.49z
		 M41.59,22.99c-1.41-0.41-1.91-2.03-1.91-3.72c0-2,0.72-4.03,1.63-4.22c0.06,0,0.16-0.03,0.22-0.03c0.88,0,1.22,1.06,1.22,2.47
		C42.75,19.14,42.28,21.33,41.59,22.99z M50.04,25.49c-0.09,0.03-0.16,0.03-0.25,0.03c-0.78,0-1.28-1.28-1.28-3.13
		c0-0.41,0.03-0.88,0.09-1.34c0.44,1.5,1.28,2.75,2.6,3.25C50.82,24.92,50.44,25.36,50.04,25.49z M51.85,22.99
		c-1.41-0.41-1.91-2.03-1.91-3.72c0-2,0.72-4.03,1.63-4.22c0.06,0,0.16-0.03,0.22-0.03c0.88,0,1.22,1.06,1.22,2.47
		C53.01,19.14,52.54,21.33,51.85,22.99z M83.78,33.84c-0.19,0.97-0.44,1.59-0.97,1.59c-0.31,0-0.63-0.25-0.63-0.84
		c0-1.5,0.91-2.72,2.22-4.1L83.78,33.84z M83.28,25.24c-0.47,0-0.66-0.66-0.66-1.63c0-2.85,1.59-8.35,2.91-8.35
		c0.69,0,0.97,0.81,0.97,1.97C86.5,20.14,84.72,25.24,83.28,25.24z"/>
</g>
</svg>
