<?xml version="1.0" encoding="utf-8"?>
<!-- Generator: Adobe Illustrator 25.2.0, SVG Export Plug-In . SVG Version: 6.00 Build 0)  -->
<svg version="1.1" id="Layer_1" xmlns="http://www.w3.org/2000/svg" xmlns:xlink="http://www.w3.org/1999/xlink" x="0px" y="0px"
	 viewBox="0 0 224 224" style="enable-background:new 0 0 224 224;" xml:space="preserve">
<style type="text/css">
	.st0{fill:#6BADA8;}
	.st1{fill:#002638;}
</style>
<path id="Rectangle_4" class="st0" d="M112,0.23L112,0.23c61.86,0,112,50.14,112,112l0,0c0,61.86-50.14,112-112,112l0,0
	c-61.86,0-112-50.14-112-112l0,0C0,50.37,50.14,0.23,112,0.23z"/>
<g>
	<path class="st1" d="M163.74,59.56H60.43c-6.54,0.01-11.83,5.3-11.84,11.84v20.19c0.05,6.49,5.35,11.71,11.84,11.67h6.48v42.27
		c0.02,12.9,10.47,23.36,23.38,23.38h43.59c12.9-0.01,23.36-10.47,23.38-23.38v-42.27h6.48c6.38,0.07,11.6-5.04,11.67-11.42
		c0-0.08,0-0.17,0-0.25V71.4C175.44,64.91,170.22,59.61,163.74,59.56z M151.56,145.52c-0.01,9.76-7.92,17.67-17.68,17.68H90.29
		c-9.76-0.01-17.67-7.92-17.68-17.68V84.26h78.94L151.56,145.52L151.56,145.52z M169.71,91.59c0.04,3.26-2.58,5.94-5.84,5.97
		c-0.04,0-0.08,0-0.13,0h-6.48V81.41c0-1.57-1.27-2.85-2.85-2.85c0,0,0,0,0,0H69.76c-1.57,0-2.85,1.27-2.85,2.85c0,0,0,0,0,0v16.15
		h-6.48c-3.34,0.04-6.09-2.63-6.14-5.97V71.4c0.04-3.37,2.77-6.1,6.14-6.14h103.3c3.34,0.05,6.01,2.8,5.97,6.14V91.59z"/>
	<path class="st1" d="M115.26,121.2l-0.41,0.41v-11.76c0-1.57-1.28-2.85-2.85-2.85c-1.57,0-2.85,1.28-2.85,2.85v11.76l-0.41-0.41
		c-1.11-1.11-2.92-1.11-4.03,0c-1.11,1.11-1.11,2.92,0,4.03l5.28,5.28c0.81,0.81,2.03,1.06,3.1,0.62l0.01,0
		c0.31-0.13,0.59-0.32,0.84-0.56c0.03-0.02,0.06-0.03,0.09-0.06l5.28-5.28c1.11-1.11,1.11-2.92,0-4.03
		C118.18,120.09,116.38,120.09,115.26,121.2L115.26,121.2z"/>
</g>
</svg>
