<?xml version="1.0" encoding="utf-8"?>
<!-- Generator: Adobe Illustrator 25.2.0, SVG Export Plug-In . SVG Version: 6.00 Build 0)  -->
<svg version="1.1" id="Layer_1" xmlns="http://www.w3.org/2000/svg" xmlns:xlink="http://www.w3.org/1999/xlink" x="0px" y="0px"
	 viewBox="0 0 224 224" style="enable-background:new 0 0 224 224;" xml:space="preserve">
<style type="text/css">
	.st0{fill:#6BADA8;}
	.st1{fill:#002638;}
</style>
<path id="Rectangle_4" class="st0" d="M112,0.23L112,0.23c61.86,0,112,50.14,112,112l0,0c0,61.86-50.14,112-112,112l0,0
	c-61.86,0-112-50.14-112-112l0,0C0,50.37,50.14,0.23,112,0.23z"/>
<g>
	<path class="st1" d="M156.61,84.2c0-0.04,0.01-0.08,0.01-0.12V48.21c0.06-0.66-0.18-1.33-0.67-1.82c0,0-0.01-0.01-0.01-0.01
		c-0.07-0.07-0.13-0.13-0.2-0.19l-6.71-5.14c-0.82-0.63-1.97-0.63-2.79,0l-5.31,4.08l-5.3-4.07c-0.82-0.63-1.97-0.63-2.79,0
		l-5.3,4.07l-5.3-4.07c-0.82-0.63-1.97-0.63-2.79,0l-5.3,4.07l-5.3-4.07c-0.82-0.63-1.97-0.63-2.79,0l-6.7,5.15
		c-0.67,0.51-0.96,1.32-0.87,2.09v27.08l-21.3,24.54c-4.68,4.85-7.26,11.23-7.26,18.02l0.55,42.65l-0.55,15.1
		c-0.02,0.62,0.21,1.23,0.64,1.67c0.43,0.45,1.03,0.7,1.65,0.7h29.69c0.63,0,1.24-0.26,1.67-0.73c0.43-0.46,0.66-1.09,0.61-1.72
		l-1-14.8l0.36-1.4c1.22-4.76,2.69-7.17,6.55-10.76c4.5-4.18,8.72-9.94,10.26-14c0.02-0.06,0.04-0.11,0.06-0.17l1.14-3.93
		c0.33-0.07,0.64-0.19,0.92-0.4l5.25-4.06l5.26,4.06c0.41,0.32,0.91,0.48,1.4,0.48s0.99-0.16,1.4-0.48l5.25-4.06l5.26,4.06
		c0.82,0.64,1.98,0.64,2.8,0l6.65-5.14c0.66-0.51,0.96-1.31,0.87-2.08L156.61,84.2L156.61,84.2z M99.16,116.82
		c-0.7-0.35-1.28-0.93-1.63-1.69c-0.48-1.04-0.51-2.25-0.07-3.31c0.59-1.45,1.16-2.78,1.71-4L99.16,116.82z M106.96,145.3
		c-4.2,3.9-6.14,6.93-7.56,11.87H84.63c-1.05,0-1.91,0.86-1.91,1.91c0,1.05,0.86,1.91,1.91,1.91H98.6l0.85,12.49H74.58l0.45-12.49
		h3.75c1.05,0,1.91-0.86,1.91-1.91c0-1.05-0.86-1.91-1.91-1.91H75l-0.51-39.27c0-5.56,2.12-10.82,6.06-14.89l18.62-21.45l0,18.07
		c-1.75,2.56-3.79,7.17-5.25,10.75c-0.83,2.04-0.78,4.36,0.14,6.36c0.88,1.89,2.42,3.28,4.36,3.92c0.29,0.09,0.58,0.17,0.89,0.23
		l2.58,0.52c0.11,0.02,0.22,0.03,0.34,0.04c4.12,0.15,7.61-2.57,8.57-5.1c1.34-2.84,4.04-8.45,4.87-9.89
		c0.77-1.33,1.59-2.38,2.43-3.12c1.43-1.25,2.97-1.84,3.91-1.5c0.48,0.18,1.95,0.72,1.95,3.32c0,0.35-0.05,0.71-0.14,1.04
		c0,0-5.14,17.68-5.75,19.79c-0.01,0.04,0,0.07-0.01,0.1l-2.04,7.03C114.7,136.53,110.91,141.64,106.96,145.3z M147.69,125.45
		l-5.26-4.06c-0.82-0.64-1.98-0.64-2.8,0l-5.25,4.06l-5.26-4.06c-0.82-0.64-1.98-0.64-2.8,0l-3.78,2.92
		c1.61-5.55,4.96-17.05,4.96-17.07c0.19-0.68,0.28-1.38,0.28-2.08c0-3.35-1.62-5.86-4.45-6.91c-2.33-0.85-5.16-0.05-7.73,2.21
		c-1.16,1.01-2.24,2.38-3.22,4.08c-1.13,1.95-4.89,9.91-5.05,10.25c-0.03,0.06-0.05,0.12-0.08,0.18c-0.29,0.84-2.01,2.37-4.26,2.6
		l0-17.61c0-0.01,0-0.01,0-0.02l0.01-23.57c0.04-0.17,0.07-0.34,0.07-0.52V63.84h1.09c1.05,0,1.91-0.86,1.91-1.91
		s-0.86-1.91-1.91-1.91h-1.09v-10.9l4.38-3.37l5.3,4.07c0.82,0.63,1.97,0.63,2.79,0l5.3-4.07l5.3,4.07c0.82,0.63,1.97,0.63,2.79,0
		l5.3-4.07l5.3,4.07c0.82,0.63,1.97,0.63,2.79,0l5.31-4.08l4.4,3.38v10.89h-0.78c-1.05,0-1.91,0.86-1.91,1.91s0.86,1.91,1.91,1.91
		h0.78v20.13c0,0.04-0.01,0.08-0.01,0.12v38.01L147.69,125.45z"/>
	<path class="st1" d="M131.07,60.02h-6.73c-1.05,0-1.91,0.86-1.91,1.91c0,1.05,0.86,1.91,1.91,1.91h6.73c1.05,0,1.91-0.86,1.91-1.91
		C132.98,60.88,132.12,60.02,131.07,60.02z"/>
	<path class="st1" d="M117.6,60.02h-6.73c-1.05,0-1.91,0.86-1.91,1.91c0,1.05,0.86,1.91,1.91,1.91h6.73c1.05,0,1.91-0.86,1.91-1.91
		C119.51,60.88,118.66,60.02,117.6,60.02z"/>
	<path class="st1" d="M144.53,60.02h-6.73c-1.05,0-1.91,0.86-1.91,1.91c0,1.05,0.86,1.91,1.91,1.91h6.73c1.05,0,1.91-0.86,1.91-1.91
		C146.44,60.88,145.58,60.02,144.53,60.02z"/>
</g>
</svg>
