<?xml version="1.0" encoding="utf-8"?>
<!-- Generator: Adobe Illustrator 25.2.0, SVG Export Plug-In . SVG Version: 6.00 Build 0)  -->
<svg version="1.1" id="Layer_1" xmlns="http://www.w3.org/2000/svg" xmlns:xlink="http://www.w3.org/1999/xlink" x="0px" y="0px"
	 viewBox="0 0 224 224" style="enable-background:new 0 0 224 224;" xml:space="preserve">
<style type="text/css">
	.st0{fill:#6BADA8;}
	.st1{fill:#002638;}
</style>
<path id="Rectangle_4" class="st0" d="M112,0L112,0c61.86,0,112,50.14,112,112l0,0c0,61.86-50.14,112-112,112l0,0
	C50.14,224,0,173.86,0,112l0,0C0,50.14,50.14,0,112,0z"/>
<g id="noun_tap_884208" transform="translate(54 51)">
	<g id="Group_6" transform="translate(19 6)">
		<path id="Path_15" class="st1" d="M30.03,0C17.59,0,7.51,10.09,7.51,22.53c0,7.52,3.76,14.55,10.01,18.73v-6.49
			c-6.77-6.91-6.66-18,0.25-24.78s18-6.66,24.78,0.25c6.67,6.81,6.67,17.71,0,24.52v6.49c10.34-6.91,13.13-20.9,6.21-31.25
			C44.58,3.76,37.56,0,30.03,0z M30.03,15.02c-5.52,0.02-9.99,4.49-10.01,10.01v34.45c-1.55-3.35-4.33-6.97-7.82-7.86
			c-4.75-1.29-10.56,2.51-11.89,6.92C-0.36,61,0.08,63.8,1.41,67.23c6.5,15.63,14.51,30.64,24.25,42.04
			c0.48,0.54,1.16,0.85,1.88,0.86h33.79c0.54,0,1.06-0.18,1.49-0.51c3.6-2.67,6.51-7.21,8.92-12.63c2.5-5.69,4.25-11.69,5.2-17.83
			c1.02-5.63,0.89-11.4-0.39-16.97c-1.29-4.92-4.76-9.01-9.93-9.62c-1.21-0.01-2.42,0.1-3.6,0.35c-0.54-1.43-1.46-2.69-2.66-3.64
			c-1.54-1.13-3.41-1.73-5.32-1.72c-1.45,0.05-2.86,0.54-4.03,1.41c-0.47-0.83-1.08-1.57-1.8-2.19c-1.57-1.13-3.46-1.74-5.4-1.72
			c-1.3,0.04-2.57,0.33-3.75,0.86V25.03c0.08-5.45-4.27-9.93-9.72-10.01C30.22,15.02,30.12,15.02,30.03,15.02L30.03,15.02z
			 M30.03,20.02c2.73-0.04,4.97,2.15,5.01,4.88c0,0.04,0,0.09,0,0.13v26.28c-0.01,1.38,1.1,2.52,2.49,2.53
			c0.97,0.01,1.86-0.55,2.28-1.43c0.91-1.34,2.37-2.21,3.99-2.35c0.88,0.03,1.73,0.3,2.46,0.78c0.73,0.53,1.29,1.15,1.29,2.97
			c0,1.38,1.11,2.5,2.49,2.51c0.95,0,1.81-0.53,2.24-1.37c1.02-2.04,1.56-2.36,2.82-2.39c0.83,0.07,1.64,0.33,2.35,0.78
			c0.99,0.64,1.52,1.8,1.37,2.97c0,0.99,0.58,1.9,1.49,2.31c0.93,0.39,1.99,0.2,2.74-0.47c0.96-0.45,2.03-0.66,3.09-0.59
			c2.98,0.38,4.53,2.25,5.59,5.98c1.07,3.77,1.11,9.15,0.24,14.82c-0.89,5.71-2.5,11.28-4.81,16.58c-2.07,4.65-4.61,8.29-6.84,10.17
			H28.74C19.96,94.75,11.57,78.84,6.1,65.42c-1.14-2.93-1.24-4.61-0.98-5.55c0.91-2.32,3.27-3.73,5.75-3.44
			c2.66,1,3.32,2.78,4.46,4.81l4.97,9.97c0.62,1.23,2.13,1.73,3.36,1.11c0.85-0.43,1.38-1.29,1.37-2.24V25.03
			c-0.04-2.73,2.15-4.97,4.88-5.01C29.95,20.02,29.99,20.02,30.03,20.02z"/>
	</g>
</g>
</svg>
